<?xml version="1.0" encoding="UTF-8"?>
<svg width="181px" height="27px" viewBox="0 0 181 27" version="1.1" xmlns="http://www.w3.org/2000/svg" xmlns:xlink="http://www.w3.org/1999/xlink">
    <!-- Generator: Sketch 53.2 (72643) - https://sketchapp.com -->
    <title>业务领域</title>
    <desc>Created with Sketch.</desc>
    <g id="设计稿" stroke="none" stroke-width="1" fill="none" fill-rule="evenodd">
        <g id="m.-首页" transform="translate(-97.000000, -385.000000)">
            <g id="业务领域" transform="translate(0.000000, 385.000000)">
                <g transform="translate(10.000000, 0.000000)">
                    <g transform="translate(87.120000, 0.352000)">
                        <polygon id="Rectangle" fill="#E60D11" opacity="0.201590402" points="60.88 22.648 120.88 22.648 120.88 26.648 60.88 26.648"></polygon>
                        <path d="M5.68434189e-14,0.224 L4.736,0.224 C7.488,0.224 8.88,1.392 8.88,3.728 C8.88,6.08 7.488,7.264 4.704,7.264 L1.872,7.264 L1.872,11.648 L5.68434189e-14,11.648 L5.68434189e-14,0.224 Z M1.872,1.824 L1.872,5.664 L4.592,5.664 C5.424,5.664 6.032,5.504 6.416,5.216 C6.8,4.912 6.992,4.416 6.992,3.728 C6.992,3.04 6.784,2.56 6.4,2.272 C6.016,1.968 5.408,1.824 4.592,1.824 L1.872,1.824 Z M11.0133334,0.224 L16.1013334,0.224 C17.2693334,0.224 18.1973334,0.48 18.8693334,1.008 C19.5733334,1.584 19.9413334,2.416 19.9413334,3.504 C19.9413334,4.096 19.7813334,4.624 19.4613334,5.088 C19.1093334,5.6 18.6133334,5.936 18.0053334,6.096 L18.0053334,6.128 C18.9973334,6.352 19.5573334,7.008 19.6853334,8.128 L19.8773334,9.968 C19.9413334,10.672 20.1813334,11.232 20.5653334,11.648 L18.5333334,11.648 C18.2613334,11.296 18.1013334,10.8 18.0373334,10.16 L17.8933334,8.752 C17.8293334,8.128 17.6373334,7.68 17.3173334,7.408 C16.9813334,7.12 16.4853334,6.992 15.8453334,6.992 L12.8853334,6.992 L12.8853334,11.648 L11.0133334,11.648 L11.0133334,0.224 Z M12.8853334,1.824 L12.8853334,5.392 L15.8453334,5.392 C16.5813334,5.392 17.1413334,5.232 17.5253334,4.928 C17.8773334,4.608 18.0533334,4.16 18.0533334,3.584 C18.0533334,2.96 17.8773334,2.512 17.5253334,2.24 C17.1733334,1.952 16.6133334,1.824 15.8453334,1.824 L12.8853334,1.824 Z M27.7706668,-3.05533376e-13 C29.5146668,-3.05533376e-13 30.8906668,0.56 31.8986668,1.696 C32.8586668,2.768 33.3386668,4.192 33.3386668,5.952 C33.3386668,7.712 32.8586668,9.12 31.8986668,10.192 C30.8906668,11.312 29.5146668,11.872 27.7706668,11.872 C26.0106668,11.872 24.6346668,11.296 23.6426668,10.176 C22.6826668,9.088 22.2186668,7.68 22.2186668,5.952 C22.2186668,4.208 22.6826668,2.8 23.6426668,1.712 C24.6346668,0.56 26.0106668,-3.05533376e-13 27.7706668,-3.05533376e-13 Z M27.7706668,1.648 C26.5866668,1.648 25.6746668,2.048 25.0186668,2.848 C24.3946668,3.616 24.0906668,4.64 24.0906668,5.952 C24.0906668,7.248 24.3946668,8.272 25.0186668,9.04 C25.6586668,9.824 26.5866668,10.224 27.7706668,10.224 C28.9546668,10.224 29.8666668,9.84 30.5066668,9.088 C31.1306668,8.336 31.4506668,7.296 31.4506668,5.952 C31.4506668,4.608 31.1306668,3.552 30.5066668,2.784 C29.8666668,2.016 28.9546668,1.648 27.7706668,1.648 Z M35.6320002,0.224 L43.4240002,0.224 L43.4240002,1.824 L37.5040002,1.824 L37.5040002,4.992 L43.0880002,4.992 L43.0880002,6.592 L37.5040002,6.592 L37.5040002,11.648 L35.6320002,11.648 L35.6320002,0.224 Z M45.4773336,0.224 L53.7173336,0.224 L53.7173336,1.824 L47.3493336,1.824 L47.3493336,4.992 L53.3333336,4.992 L53.3333336,6.592 L47.3493336,6.592 L47.3493336,10.048 L53.9893336,10.048 L53.9893336,11.648 L45.4773336,11.648 L45.4773336,0.224 Z M60.314667,-3.05533376e-13 C61.658667,-3.05533376e-13 62.714667,0.272 63.466667,0.832 C64.266667,1.424 64.730667,2.352 64.842667,3.6 L62.986667,3.6 C62.826667,2.896 62.522667,2.384 62.106667,2.08 C61.690667,1.76 61.050667,1.616 60.218667,1.616 C59.498667,1.616 58.954667,1.712 58.570667,1.92 C58.090667,2.16 57.866667,2.56 57.866667,3.104 C57.866667,3.584 58.122667,3.984 58.666667,4.272 C58.906667,4.4 59.562667,4.64 60.618667,4.976 C62.170667,5.456 63.162667,5.84 63.610667,6.096 C64.602667,6.688 65.098667,7.504 65.098667,8.56 C65.098667,9.584 64.698667,10.4 63.898667,10.992 C63.098667,11.568 61.962667,11.872 60.506667,11.872 C59.098667,11.872 57.994667,11.6 57.210667,11.056 C56.250667,10.384 55.722667,9.328 55.642667,7.872 L57.498667,7.872 C57.626667,8.736 57.930667,9.36 58.426667,9.728 C58.874667,10.048 59.562667,10.224 60.506667,10.224 C61.338667,10.224 62.010667,10.08 62.490667,9.808 C62.970667,9.52 63.226667,9.152 63.226667,8.672 C63.226667,8.064 62.858667,7.584 62.154667,7.232 C61.930667,7.12 61.194667,6.864 59.930667,6.48 C58.522667,6.032 57.642667,5.712 57.306667,5.52 C56.426667,4.992 55.994667,4.224 55.994667,3.216 C55.994667,2.208 56.410667,1.408 57.274667,0.832 C58.074667,0.272 59.082667,-3.05533376e-13 60.314667,-3.05533376e-13 Z M71.2640004,-3.05533376e-13 C72.6080004,-3.05533376e-13 73.6640004,0.272 74.4160004,0.832 C75.2160004,1.424 75.6800004,2.352 75.7920004,3.6 L73.9360004,3.6 C73.7760004,2.896 73.4720004,2.384 73.0560004,2.08 C72.6400004,1.76 72.0000004,1.616 71.1680004,1.616 C70.4480004,1.616 69.9040004,1.712 69.5200004,1.92 C69.0400004,2.16 68.8160004,2.56 68.8160004,3.104 C68.8160004,3.584 69.0720004,3.984 69.6160004,4.272 C69.8560004,4.4 70.5120004,4.64 71.5680004,4.976 C73.1200004,5.456 74.1120004,5.84 74.5600004,6.096 C75.5520004,6.688 76.0480004,7.504 76.0480004,8.56 C76.0480004,9.584 75.6480004,10.4 74.8480004,10.992 C74.0480004,11.568 72.9120004,11.872 71.4560004,11.872 C70.0480004,11.872 68.9440004,11.6 68.1600004,11.056 C67.2000004,10.384 66.6720004,9.328 66.5920004,7.872 L68.4480004,7.872 C68.5760004,8.736 68.8800004,9.36 69.3760004,9.728 C69.8240004,10.048 70.5120004,10.224 71.4560004,10.224 C72.2880004,10.224 72.9600004,10.08 73.4400004,9.808 C73.9200004,9.52 74.1760004,9.152 74.1760004,8.672 C74.1760004,8.064 73.8080004,7.584 73.1040004,7.232 C72.8800004,7.12 72.1440004,6.864 70.8800004,6.48 C69.4720004,6.032 68.5920004,5.712 68.2560004,5.52 C67.3760004,4.992 66.9440004,4.224 66.9440004,3.216 C66.9440004,2.208 67.3600004,1.408 68.2240004,0.832 C69.0240004,0.272 70.0320004,-3.05533376e-13 71.2640004,-3.05533376e-13 Z M78.1813338,0.224 L80.0533338,0.224 L80.0533338,11.648 L78.1813338,11.648 L78.1813338,0.224 Z M87.8986672,-3.05533376e-13 C89.6426672,-3.05533376e-13 91.0186672,0.56 92.0266672,1.696 C92.9866672,2.768 93.4666672,4.192 93.4666672,5.952 C93.4666672,7.712 92.9866672,9.12 92.0266672,10.192 C91.0186672,11.312 89.6426672,11.872 87.8986672,11.872 C86.1386672,11.872 84.7626672,11.296 83.7706672,10.176 C82.8106672,9.088 82.3466672,7.68 82.3466672,5.952 C82.3466672,4.208 82.8106672,2.8 83.7706672,1.712 C84.7626672,0.56 86.1386672,-3.05533376e-13 87.8986672,-3.05533376e-13 Z M87.8986672,1.648 C86.7146672,1.648 85.8026672,2.048 85.1466672,2.848 C84.5226672,3.616 84.2186672,4.64 84.2186672,5.952 C84.2186672,7.248 84.5226672,8.272 85.1466672,9.04 C85.7866672,9.824 86.7146672,10.224 87.8986672,10.224 C89.0826672,10.224 89.9946672,9.84 90.6346672,9.088 C91.2586672,8.336 91.5786672,7.296 91.5786672,5.952 C91.5786672,4.608 91.2586672,3.552 90.6346672,2.784 C89.9946672,2.016 89.0826672,1.648 87.8986672,1.648 Z M95.7600006,0.224 L97.6320006,0.224 L103.280001,8.464 L103.344001,8.464 L103.344001,0.224 L105.232001,0.224 L105.232001,11.648 L103.408001,11.648 L97.6960006,3.296 L97.6320006,3.296 L97.6320006,11.648 L95.7600006,11.648 L95.7600006,0.224 Z M111.253334,0.224 L113.381334,0.224 L117.749334,11.648 L115.749334,11.648 L114.709334,8.784 L109.925334,8.784 L108.885334,11.648 L106.885334,11.648 L111.253334,0.224 Z M110.485334,7.248 L114.149334,7.248 L112.357334,2.24 L112.293334,2.24 L110.485334,7.248 Z M119.402667,0.224 L121.258667,0.224 L121.258667,10.048 L127.434667,10.048 L127.434667,11.648 L119.402667,11.648 L119.402667,0.224 Z M135.269334,0.224 L143.061334,0.224 L143.061334,1.824 L137.141334,1.824 L137.141334,4.992 L142.725334,4.992 L142.725334,6.592 L137.141334,6.592 L137.141334,11.648 L135.269334,11.648 L135.269334,0.224 Z M145.114668,0.224 L146.986668,0.224 L146.986668,11.648 L145.114668,11.648 L145.114668,0.224 Z M149.760001,0.224 L158.000001,0.224 L158.000001,1.824 L151.632001,1.824 L151.632001,4.992 L157.616001,4.992 L157.616001,6.592 L151.632001,6.592 L151.632001,10.048 L158.272001,10.048 L158.272001,11.648 L149.760001,11.648 L149.760001,0.224 Z M160.565334,0.224 L162.421334,0.224 L162.421334,10.048 L168.597334,10.048 L168.597334,11.648 L160.565334,11.648 L160.565334,0.224 Z M170.570668,0.224 L174.746668,0.224 C176.602668,0.224 177.994668,0.736 178.954668,1.76 C179.866668,2.72 180.330668,4.112 180.330668,5.936 C180.330668,7.744 179.866668,9.136 178.954668,10.112 C177.994668,11.136 176.602668,11.648 174.746668,11.648 L170.570668,11.648 L170.570668,0.224 Z M172.442668,1.824 L172.442668,10.048 L174.394668,10.048 C175.818668,10.048 176.858668,9.712 177.514668,9.056 C178.154668,8.384 178.474668,7.344 178.474668,5.936 C178.474668,4.496 178.154668,3.44 177.514668,2.8 C176.858668,2.144 175.818668,1.824 174.394668,1.824 L172.442668,1.824 Z" id="PROFESSIONALFIELD" fill="#333333" fill-rule="nonzero" opacity="0.101888021"></path>
                        <path d="M52.338,3.718 L54.648,3.718 L54.648,20.944 L57.068,20.944 L57.068,3.718 L59.378,3.718 L59.378,20.944 L65.714,20.944 L65.714,23.188 L46.046,23.188 L46.046,20.944 L52.338,20.944 L52.338,3.718 Z M63.272,7.876 L65.296,8.448 C64.46,12.21 63.404,15.51 62.128,18.326 L60.06,17.6 C61.292,15.048 62.348,11.792 63.272,7.876 Z M48.4,7.81 C49.5,10.736 50.49,14.102 51.348,17.886 L49.258,18.392 C48.51,14.96 47.586,11.66 46.442,8.47 L48.4,7.81 Z M74.7853333,3.476 L77.1173333,3.828 C76.8973333,4.334 76.6773333,4.818 76.4353333,5.258 L85.7853333,5.258 L85.7853333,7.106 C84.4873333,8.602 82.9473333,9.878 81.1433333,10.934 C83.4533333,11.77 86.0273333,12.32 88.8433333,12.584 L87.8093333,14.718 C84.3993333,14.322 81.3413333,13.508 78.6133333,12.232 C75.9953333,13.398 72.9593333,14.256 69.4833333,14.784 L68.4273333,12.628 C71.2873333,12.276 73.8393333,11.682 76.0833333,10.89 C75.1153333,10.296 74.2133333,9.658 73.3773333,8.976 C72.6513333,9.57 71.8593333,10.12 71.0233333,10.648 L69.6373333,8.822 C72.1893333,7.37 73.9053333,5.588 74.7853333,3.476 Z M78.5913333,9.834 C79.9993333,9.13 81.2533333,8.338 82.3753333,7.414 L74.9393333,7.414 L74.8953333,7.458 C76.0393333,8.382 77.2713333,9.174 78.5913333,9.834 Z M76.9193333,13.486 L79.1853333,13.486 C79.1853333,14.234 79.1193333,14.96 79.0313333,15.62 L86.5553333,15.62 C86.5113333,19.536 86.1813333,21.868 85.5653333,22.638 C84.9493333,23.408 83.8713333,23.804 82.3313333,23.804 C81.5613333,23.804 80.6373333,23.76 79.5373333,23.672 L78.9653333,21.604 C80.1313333,21.67 81.0773333,21.714 81.8253333,21.736 C82.8593333,21.714 83.4973333,21.494 83.7613333,21.076 C84.0473333,20.636 84.2233333,19.514 84.2673333,17.688 L78.5033333,17.688 C78.3273333,18.194 78.1073333,18.678 77.8433333,19.118 C76.7873333,21.076 74.2133333,22.704 70.1213333,24.024 L68.6033333,22.154 C72.1673333,21.12 74.4993333,19.866 75.5773333,18.392 C75.7313333,18.15 75.8633333,17.908 75.9953333,17.688 L69.9673333,17.688 L69.9673333,15.62 L76.6993333,15.62 C76.8313333,14.938 76.8973333,14.234 76.9193333,13.486 Z M100.598667,4.268 L111.202667,4.268 L111.202667,6.424 L107.022667,6.424 C106.934667,7.04 106.846667,7.612 106.736667,8.184 L110.784667,8.184 L110.784667,18.942 L108.540667,18.942 L108.540667,10.296 L103.590667,10.296 L103.590667,19.162 L101.346667,19.162 L101.346667,8.184 L104.492667,8.184 C104.602667,7.612 104.690667,7.018 104.778667,6.424 L100.598667,6.424 L100.598667,4.268 Z M107.968667,18.788 C109.376667,19.998 110.608667,21.208 111.620667,22.418 L109.970667,24.068 C109.134667,22.88 107.968667,21.626 106.428667,20.262 L107.968667,18.788 Z M104.954667,11.33 L107.110667,11.33 L107.110667,15.158 C107.022667,17.556 106.538667,19.492 105.658667,20.944 C104.822667,22.264 103.436667,23.298 101.544667,24.024 L100.334667,22.11 C102.094667,21.406 103.304667,20.548 103.920667,19.514 C104.536667,18.414 104.866667,16.962 104.954667,15.158 L104.954667,11.33 Z M95.2966666,3.652 L97.0126666,3.652 C98.5086666,5.39 99.9166666,7.194 101.258667,9.064 L99.7406666,10.692 C98.3986666,8.536 97.2766666,6.93 96.3966666,5.852 C95.2526666,7.876 93.8666666,9.812 92.2606666,11.66 L90.9406666,9.812 C92.5246666,8.074 93.9766666,6.028 95.2966666,3.652 Z M92.2386666,13.156 L100.400667,13.156 L100.400667,15.07 C99.5206666,16.896 98.5306666,18.568 97.3866666,20.064 C98.1566666,20.79 98.8606666,21.516 99.4986666,22.242 L97.8706666,23.892 C96.6166666,22.264 94.8346666,20.526 92.5466666,18.656 L94.0646666,17.182 C94.6806666,17.666 95.2966666,18.172 95.8906666,18.678 C96.5506666,17.71 97.2326666,16.588 97.9366666,15.29 L92.2386666,15.29 L92.2386666,13.156 Z M96.3746666,8.558 C97.2766666,9.79 97.9586666,10.89 98.4426666,11.814 L96.8146666,12.98 C96.3086666,11.946 95.6266666,10.802 94.7466666,9.57 L96.3746666,8.558 Z M120.032,6.336 L127.556,6.336 C127.534,5.456 127.534,4.554 127.534,3.63 L129.778,3.63 C129.778,4.554 129.778,5.456 129.8,6.336 L131.362,6.336 C131.142,5.632 130.9,4.972 130.636,4.356 L132.66,4.026 C132.858,4.708 133.056,5.478 133.276,6.336 L134.178,6.336 L134.178,8.492 L129.822,8.492 C129.866,11.088 129.954,13.288 130.108,15.136 C130.746,13.596 131.252,11.836 131.626,9.878 L133.606,10.736 C132.858,13.992 131.868,16.72 130.614,18.898 C130.922,20.482 131.274,21.34 131.648,21.45 C131.978,21.406 132.33,20.394 132.726,18.392 L134.442,19.8 C133.65,22.462 132.704,23.804 131.648,23.804 C130.9,23.804 130.218,23.21 129.602,22.066 C129.426,21.714 129.294,21.362 129.162,21.01 C128.172,22.22 127.072,23.188 125.862,23.936 L124.454,22.088 C125.994,21.208 127.336,19.976 128.436,18.348 C128.304,17.776 128.216,17.204 128.15,16.588 C127.864,14.454 127.688,11.748 127.6,8.492 L120.032,8.492 L120.032,6.336 Z M120.846,10.186 L126.742,10.186 L126.742,16.72 L120.846,16.72 L120.846,10.186 Z M124.762,14.85 L124.762,12.056 L122.804,12.056 L122.804,14.85 L124.762,14.85 Z M126.742,17.6 L126.742,19.668 C124.586,20.482 122.298,21.164 119.856,21.736 L119.284,19.536 C121.836,19.14 124.322,18.502 126.742,17.6 Z M114.18,9.196 L116.094,9.196 L116.094,3.674 L118.36,3.674 L118.36,9.196 L120.186,9.196 L120.186,11.396 L118.36,11.396 L118.36,17.138 C118.976,16.852 119.57,16.566 120.142,16.258 L120.142,18.568 C118.382,19.47 116.512,20.24 114.532,20.878 L113.96,18.546 C114.686,18.392 115.39,18.216 116.094,17.996 L116.094,11.396 L114.18,11.396 L114.18,9.196 Z" fill="#333333" fill-rule="nonzero"></path>
                    </g>
                </g>
            </g>
        </g>
    </g>
</svg>